<svg width="14" height="14" viewBox="0 0 14 14" fill="none" xmlns="http://www.w3.org/2000/svg">
<path fill-rule="evenodd" clip-rule="evenodd" d="M0.34121 0.355812C0.559773 0.137315 0.856167 0.0145708 1.16521 0.0145708C1.47426 0.0145708 1.77066 0.137315 1.98922 0.355812L6.99268 5.35928L11.9961 0.355812C12.1037 0.244495 12.2323 0.155705 12.3745 0.0946228C12.5167 0.0335404 12.6696 0.00138877 12.8243 4.40056e-05C12.9791 -0.00130076 13.1326 0.028188 13.2758 0.08679C13.419 0.145392 13.5492 0.231934 13.6586 0.341365C13.768 0.450796 13.8546 0.580926 13.9132 0.724161C13.9718 0.867396 14.0013 1.02087 13.9999 1.17562C13.9986 1.33037 13.9664 1.48331 13.9053 1.62551C13.8443 1.7677 13.7555 1.89631 13.6442 2.00382L8.64069 7.00728L13.6442 12.0107C13.8565 12.2306 13.9739 12.525 13.9713 12.8306C13.9686 13.1361 13.8461 13.4285 13.63 13.6446C13.4139 13.8607 13.1215 13.9832 12.816 13.9859C12.5104 13.9885 12.216 13.8711 11.9961 13.6588L6.99268 8.65529L1.98922 13.6588C1.7694 13.8711 1.475 13.9885 1.16941 13.9859C0.86382 13.9832 0.5715 13.8607 0.355408 13.6446C0.139316 13.4285 0.0167416 13.1361 0.0140861 12.8306C0.0114306 12.525 0.128906 12.2306 0.34121 12.0107L5.34468 7.00728L0.34121 2.00382C0.122714 1.78526 -3.05176e-05 1.48886 -3.05176e-05 1.17982C-3.05176e-05 0.870768 0.122714 0.574374 0.34121 0.355812Z" fill="#4B4B7C"/>
</svg>
